<?xml version="1.0" encoding="utf-8"?>
<svg xmlns="http://www.w3.org/2000/svg" x="-1421.57pt" viewBox="-1421.57 -571.181 2843.15 1142.36" height="1142.36pt" stroke-miterlimit="10.000000" fill="none" width="2843.15pt" y="-571.181pt" stroke-width="0.566929" version="1.1">
 <g stroke-width="8.503937">
  <path stroke="#000" d="M-1417.32 566.929L1417.32 566.929L1417.32 -566.929L-1417.32 -566.929L-1417.32 566.929"/>
 </g>
 <g stroke-width="8.503937">
  <path stroke="#000" d="M-1391.81 541.417L1391.81 541.417L1391.81 -541.417L-1391.81 -541.417Z"/>
 </g>
 <g stroke-width="8.503937">
  <path stroke="#000" d="M-1366.3 515.906L1366.3 515.906L1366.3 -515.906L-1366.3 -515.906Z"/>
 </g>
 <g stroke-width="8.503937">
  <path stroke="#0f0" d="M883.727 511.337L883.727 511.337L883.58 503.387L883.165 495.442L882.687 487.503L881.676 479.613L880.614 471.729L879.252 463.895L877.575 456.119L875.854 448.353L873.65 440.709L871.402 433.079L868.866 425.542L866.096 418.085L863.253 410.656L860.023 403.387L856.785 396.121L853.233 389.004L849.581 381.937L845.782 374.949L841.769 368.081L837.726 361.231L833.406 354.551L829.08 347.875L824.547 341.339L819.954 334.844L815.251 328.43L810.43 322.102L805.569 315.805L800.557 309.628L795.544 303.451L790.383 297.398L785.212 291.353L779.95 285.387L774.65 279.455L769.302 273.567L763.899 267.728L758.475 261.909L752.993 256.145L747.507 250.384L741.968 244.674L736.429 238.964L730.859 233.285L725.284 227.61L719.698 221.947L714.108 216.287L708.513 210.632L702.916 204.979L697.316 199.33L691.712 193.683L686.107 188.039L680.496 182.399L674.885 176.761L669.268 171.128L663.65 165.496L658.027 159.869L652.403 154.243L646.773 148.623L641.142 143.004L635.505 137.391L629.868 131.778L624.225 126.171L618.58 120.566L612.931 114.965L607.279 109.367L601.624 103.773L595.964 98.1826L590.303 92.5946L584.636 87.0119L578.967 81.4304L573.293 75.8554L567.618 70.2805L561.936 64.7133L556.254 59.1461L550.565 53.5858L544.875 48.0266L539.179 42.4731L533.481 36.9219L527.779 31.3752L522.073 25.8322L516.364 20.2925L510.651 14.7577L504.935 9.22486L499.213 3.69841L493.491 -1.82741L487.761 -7.3454L482.031 -12.8634L476.293 -18.3737L470.555 -23.8831L464.811 -29.3863L459.064 -34.8871L453.313 -40.3831L447.558 -45.8752L441.801 -51.3641L436.037 -56.8474L430.273 -62.3292L424.501 -67.8039L418.73 -73.2785L412.953 -78.7469L407.175 -84.2151L401.395 -89.6804L395.614 -95.1449L389.832 -100.609L384.05 -106.073L378.269 -111.537L372.489 -117.003L366.71 -122.469L360.935 -127.939L355.159 -133.41L349.391 -138.888L343.623 -144.366L337.862 -149.852L332.104 -155.34L326.354 -160.837L320.608 -166.339L314.87 -171.849L309.14 -177.366L303.416 -182.891L297.704 -188.428L291.997 -193.969L286.306 -199.528L280.618 -205.089L274.952 -210.673L269.287 -216.257L263.648 -221.868L258.01 -227.48L252.4 -233.12L246.794 -238.764L241.216 -244.435L235.644 -250.113L230.103 -255.82L224.57 -261.536L219.069 -267.282L213.579 -273.039L208.124 -278.829L202.681 -284.63L197.278 -290.469L191.887 -296.318L186.542 -302.21L181.208 -308.111L175.929 -314.063L170.658 -320.02L165.453 -326.036L160.26 -332.062L155.13 -338.142L150.027 -344.244L144.979 -350.393L139.986 -356.585L135.036 -362.812L130.18 -369.112L125.361 -375.442L120.66 -381.859L116.031 -388.328L111.481 -394.853L107.085 -401.483L102.774 -408.167L98.5924 -414.934L94.5918 -421.81L90.7173 -428.756L86.9949 -435.786L83.5248 -442.944L80.2321 -450.184L77.1326 -457.509L74.2808 -464.935L71.7279 -472.468L69.4215 -480.079L67.374 -487.764L65.595 -495.518L64.2061 -503.35L63.1032 -511.226"/>
 </g>
 <g stroke-width="8.503937">
  <path stroke="#0f0" d="M861.094 508.538L861.094 508.538L860.727 500.618L860.314 492.7L859.495 484.817L858.436 476.959L857.183 469.133L855.512 461.382L853.798 453.641L851.577 446.03L849.336 438.424L846.685 430.953L843.924 423.52L840.903 416.193L837.675 408.95L834.306 401.775L830.666 394.73L826.976 387.713L822.976 380.867L818.972 374.023L814.681 367.356L810.37 360.701L805.856 354.183L801.278 347.71L796.571 341.33L791.766 335.023L786.888 328.773L781.892 322.615L776.866 316.483L771.712 310.458L766.556 304.434L761.274 298.52L755.992 292.607L750.624 286.772L745.238 280.952L739.802 275.181L734.337 269.435L728.846 263.716L723.325 258.024L717.793 252.344L712.236 246.688L706.677 241.034L701.105 235.393L695.532 229.752L689.953 224.118L684.374 218.483L678.79 212.855L673.204 207.227L667.614 201.604L662.022 195.983L656.426 190.365L650.827 184.751L645.225 179.139L639.62 173.531L634.012 167.926L628.399 162.325L622.785 156.726L617.166 151.132L611.546 145.538L605.919 139.952L600.293 134.365L594.659 128.785L589.025 123.206L583.385 117.632L577.744 112.06L572.098 106.493L566.449 100.929L560.797 95.3686L555.14 89.8117L549.481 84.258L543.817 78.7089L538.152 73.1619L532.48 67.6208L526.808 62.0804L521.129 56.5473L515.449 51.0141L509.762 45.4887L504.075 39.9637L498.382 34.4451L492.687 28.9283L486.986 23.4167L481.283 17.9082L475.576 12.4036L469.865 6.90352L464.151 1.40585L458.432 -4.08567L452.711 -9.57634L446.983 -15.0593L441.256 -20.5422L435.52 -26.0171L429.784 -31.4913L424.042 -36.9592L418.297 -42.4246L412.548 -47.8855L406.796 -53.3423L401.041 -58.7971L395.282 -64.2474L389.523 -69.6974L383.761 -75.1441L377.999 -80.5908L372.236 -86.0367L366.473 -91.4826L360.711 -96.9299L354.95 -102.378L349.191 -107.828L343.434 -113.281L337.68 -118.736L331.93 -124.196L326.182 -129.657L320.442 -135.128L314.703 -140.598L308.975 -146.081L303.248 -151.565L297.533 -157.061L291.821 -162.561L286.121 -168.073L280.428 -173.592L274.745 -179.121L269.073 -184.661L263.409 -190.21L257.761 -195.776L252.119 -201.347L246.5 -206.941L240.883 -212.537L235.295 -218.162L229.706 -223.788L224.152 -229.447L218.599 -235.106L213.081 -240.8L207.566 -246.497L202.088 -252.229L196.616 -257.967L191.183 -263.742L185.757 -269.525L180.375 -275.347L175.001 -281.178L169.675 -287.052L164.358 -292.934L159.096 -298.865L153.841 -304.803L148.651 -310.797L143.468 -316.798L138.355 -322.858L133.258 -328.931L128.227 -335.06L123.232 -341.218L118.298 -347.425L113.431 -353.684L108.612 -359.981L103.903 -366.359L99.2344 -372.768L94.6997 -379.272L90.2419 -385.829L85.8796 -392.45L81.6751 -399.172L77.554 -405.945L73.6028 -412.82L69.8094 -419.781L66.1324 -426.806L62.687 -433.947L59.4228 -441.171L56.3139 -448.465L53.4714 -455.867L50.8624 -463.352L48.4466 -470.903L46.2971 -478.535L44.4555 -486.246L42.8324 -494.004L41.4481 -501.812L40.4433 -509.676"/>
 </g>
 <g stroke-width="8.503937">
  <path stroke="#0f0" d="M838.28 513.588L838.28 513.588L838.284 505.69L837.872 497.798L837.3 489.919L836.245 482.087L835.093 474.27L833.427 466.545L831.708 458.832L829.474 451.251L827.215 443.678L824.468 436.267L821.707 428.862L818.502 421.638L815.284 414.419L811.68 407.386L808.052 400.365L804.104 393.519L800.117 386.696L795.872 380.03L791.575 373.398L787.076 366.901L782.512 360.449L777.797 354.108L773.007 347.821L768.109 341.62L763.13 335.482L758.078 329.406L752.941 323.399L747.761 317.431L742.495 311.538L737.209 305.663L731.841 299.862L726.468 294.067L721.021 288.34L715.575 282.613L710.076 276.936L704.574 271.263L699.043 265.617L693.505 259.979L687.957 254.351L682.402 248.729L676.845 243.109L671.284 237.493L665.721 231.88L660.154 226.27L654.585 220.662L649.012 215.059L643.437 209.456L637.857 203.86L632.277 198.263L626.69 192.673L621.103 187.084L615.51 181.5L609.916 175.917L604.317 170.339L598.716 164.763L593.111 159.191L587.503 153.623L581.892 148.057L576.276 142.496L570.659 136.937L565.036 131.383L559.413 125.83L553.783 120.283L548.152 114.737L542.515 109.198L536.877 103.659L531.233 98.1269L525.588 92.596L519.938 87.0703L514.285 81.5472L508.628 76.0283L502.967 70.5132L497.303 65.001L491.634 59.494L485.964 53.9886L480.288 48.4898L474.611 42.9912L468.926 37.5007L463.242 32.0102L457.55 26.5269L451.857 21.0448L446.159 15.5685L440.458 10.0948L434.753 4.62549L429.044 -0.839538L423.332 -6.30188L417.615 -11.7582L411.896 -17.2136L406.171 -22.6612L400.445 -28.1088L394.712 -33.5485L388.978 -38.9876L383.239 -44.422L377.499 -49.8546L371.758 -55.2854L366.014 -60.7143L360.27 -66.143L354.526 -71.5712L348.782 -76.9994L343.04 -82.4295L337.297 -87.8596L331.559 -93.2938L325.821 -98.7286L320.088 -104.168L314.357 -109.611L308.631 -115.058L302.91 -120.511L297.192 -125.967L291.484 -131.433L285.777 -136.9L280.084 -142.382L274.391 -147.864L268.715 -153.363L263.04 -158.864L257.381 -164.381L251.728 -169.903L246.089 -175.441L240.46 -180.988L234.843 -186.548L229.242 -192.123L223.65 -197.708L218.079 -203.315L212.516 -208.928L206.98 -214.569L201.448 -220.213L195.951 -225.891L190.454 -231.57L185 -237.289L179.545 -243.008L174.135 -248.769L168.728 -254.533L163.367 -260.34L158.011 -266.151L152.705 -272.009L147.405 -277.872L142.161 -283.784L136.923 -289.702L131.748 -295.675L126.577 -301.653L121.48 -307.692L116.39 -313.738L111.376 -319.847L106.381 -325.972L101.464 -332.159L96.5883 -338.379L91.7851 -344.655L87.0547 -350.986L82.3835 -357.361L77.8291 -363.819L73.3133 -370.305L68.9652 -376.905L64.6762 -383.542L60.5217 -390.265L56.5005 -397.068L52.5622 -403.92L48.853 -410.898L45.2384 -417.925L41.8043 -425.043L38.5722 -432.254L35.4582 -439.517L32.6249 -446.895L29.9642 -454.335L27.4659 -461.833L25.3011 -469.433L23.2939 -477.075L21.5254 -484.778L20.0608 -492.542L18.7573 -500.336L17.777 -508.178"/>
 </g>
 <g stroke-width="8.503937">
  <path stroke="#0f0" d="M815.683 510.661L815.683 510.661L815.425 502.792L815.014 494.926L814.04 487.112L812.98 479.306L811.32 471.606L809.569 463.929L807.342 456.372L804.958 448.869L802.214 441.485L799.266 434.184L796.06 426.989L792.623 419.904L789.007 412.906L785.154 406.038L781.18 399.236L776.979 392.575L772.695 385.964L768.205 379.493L763.657 373.061L758.929 366.762L754.155 360.496L749.232 354.346L744.269 348.229L739.189 342.21L734.069 336.223L728.861 330.314L723.612 324.439L718.303 318.621L712.952 312.839L707.563 307.095L702.134 301.386L696.684 295.699L691.199 290.045L685.705 284.4L680.185 278.78L674.663 273.162L669.127 267.558L663.591 261.954L658.049 256.356L652.506 250.759L646.958 245.166L641.409 239.575L635.856 233.989L630.3 228.404L624.741 222.823L619.179 217.245L613.614 211.669L608.045 206.098L602.474 200.529L596.899 194.964L591.322 189.401L585.739 183.843L580.156 178.286L574.567 172.735L568.977 167.185L563.381 161.641L557.784 156.097L552.181 150.56L546.577 145.024L540.969 139.493L535.357 133.964L529.742 128.439L524.123 122.919L518.501 117.4L512.875 111.887L507.247 106.375L501.612 100.87L495.978 95.3653L490.336 89.8679L484.694 84.3709L479.045 78.8802L473.395 73.3912L467.74 67.9074L462.082 62.4266L456.42 56.9495L450.754 51.477L445.086 46.0068L439.412 40.5426L433.737 35.0793L428.055 29.6236L422.372 24.1679L416.683 18.7201L410.992 13.2729L405.296 7.83205L399.597 2.39355L393.894 -3.04032L388.187 -8.47009L382.477 -13.8971L376.762 -19.3183L371.046 -24.7388L365.325 -30.1536L359.604 -35.5684L353.879 -40.98L348.155 -46.3911L342.43 -51.8018L336.704 -57.2121L330.98 -62.6234L325.256 -68.0357L319.533 -73.4492L313.814 -78.8662L308.095 -84.2835L302.383 -89.708L296.671 -95.1326L290.967 -100.566L285.265 -106L279.571 -111.443L273.881 -116.891L268.198 -122.346L262.524 -127.81L256.853 -133.278L251.197 -138.761L245.542 -144.244L239.907 -149.749L234.272 -155.254L228.658 -160.78L223.048 -166.309L217.456 -171.858L211.873 -177.415L206.307 -182.989L200.755 -188.577L195.217 -194.179L189.699 -199.801L184.192 -205.434L178.713 -211.094L173.241 -216.76L167.805 -222.461L162.371 -228.164L156.982 -233.909L151.592 -239.654L146.253 -245.447L140.915 -251.239L135.63 -257.08L130.348 -262.924L125.122 -268.819L119.901 -274.718L114.743 -280.671L109.589 -286.629L104.505 -292.645L99.4247 -298.666L94.4261 -304.754L89.4345 -310.848L84.5334 -317.015L79.6512 -323.197L74.8637 -329.452L70.1148 -335.737L65.4589 -342.091L60.8699 -348.493L56.3648 -354.955L51.9654 -361.488L47.6316 -368.066L43.4548 -374.745L39.3208 -381.45L35.3955 -388.28L31.5344 -395.145L27.8483 -402.106L24.2995 -409.138L20.8767 -416.233L17.6805 -423.431L14.5654 -430.666L11.7414 -438.02L9.03335 -445.415L6.54324 -452.888L4.27714 -460.431L2.14168 -468.013L0.346416 -475.682L-1.34455 -483.375L-2.71985 -491.131L-3.91864 -498.914L-4.89577 -506.73L-5.59761 -514.574"/>
 </g>
 <g stroke-width="8.503937">
  <path stroke="#0f0" d="M792.842 515.525L792.842 515.525L792.972 507.678L792.562 499.838L791.82 492.028L790.772 484.247L789.189 476.559L787.398 468.919L785.179 461.388L782.656 453.957L779.922 446.597L776.768 439.409L773.49 432.277L769.886 425.301L766.121 418.414L762.16 411.635L757.996 404.981L753.727 398.392L749.24 391.95L744.706 385.54L739.961 379.285L735.199 373.043L730.252 366.946L725.297 360.856L720.193 354.889L715.083 348.929L709.852 343.074L704.618 337.221L699.286 331.459L693.953 325.696L688.545 320.004L683.134 314.315L677.675 308.672L672.208 303.037L666.715 297.427L661.213 291.826L655.701 286.235L650.183 280.649L644.662 275.067L639.138 269.488L633.611 263.911L628.081 258.338L622.549 252.766L617.011 247.2L611.474 241.634L605.93 236.074L600.386 230.514L594.836 224.961L589.286 219.408L583.73 213.86L578.173 208.314L572.611 202.772L567.046 197.233L561.479 191.697L555.907 186.165L550.333 180.635L544.755 175.11L539.175 169.587L533.589 164.069L528.003 158.552L522.41 153.042L516.816 147.532L511.216 142.029L505.616 136.527L500.009 131.03L494.401 125.535L488.788 120.045L483.172 114.558L477.553 109.075L471.93 103.596L466.304 98.1186L460.672 92.6477L455.04 87.1775L449.401 81.7147L443.761 76.2519L438.115 70.7966L432.467 65.3421L426.814 59.8937L421.159 54.4475L415.499 49.0059L409.835 43.5682L404.169 38.1335L398.497 32.7043L392.824 27.2765L387.144 21.8559L381.464 16.4353L375.776 11.0232L370.088 5.61127L364.394 0.205849L358.697 -5.19755L352.998 -10.5974L347.295 -15.9944L341.592 -21.3902L335.886 -26.7836L330.18 -32.1768L324.473 -37.5694L318.767 -42.9619L313.062 -48.3562L307.357 -53.7506L301.655 -59.1482L295.955 -64.5474L290.258 -69.9498L284.564 -75.3565L278.873 -80.7653L273.19 -86.1822L267.506 -91.5992L261.835 -97.029L256.164 -102.459L250.505 -107.901L244.85 -113.347L239.204 -118.804L233.567 -124.269L227.937 -129.741L222.32 -135.228L216.708 -140.718L211.116 -146.229L205.524 -151.74L199.958 -157.278L194.394 -162.818L188.854 -168.381L183.32 -173.951L177.808 -179.542L172.309 -185.146L166.828 -190.768L161.367 -196.409L155.92 -202.064L150.502 -207.746L145.093 -213.437L139.721 -219.163L134.355 -224.895L129.034 -230.668L123.716 -236.443L118.451 -242.268L113.186 -248.092L107.981 -253.971L102.777 -259.85L97.6361 -265.784L92.4994 -271.722L87.4298 -277.717L82.3663 -283.718L77.3781 -289.781L72.3965 -295.85L67.5061 -301.992L62.6214 -308.139L57.8482 -314.373L53.0833 -320.613L48.4427 -326.946L43.8221 -333.294L39.3318 -339.734L34.8806 -346.201L30.561 -352.758L26.3068 -359.356L22.1794 -366.035L18.1518 -372.773L14.2393 -379.581L10.4696 -386.467L6.79552 -393.405L3.31608 -400.443L-0.0954992 -407.514L-3.252 -414.703L-6.3637 -421.911L-9.17893 -429.24L-11.93 -436.593L-14.4119 -444.042L-16.7747 -451.527L-18.9031 -459.085L-20.8555 -466.687L-22.6125 -474.34L-24.1386 -482.039L-25.5094 -489.77L-26.6009 -497.543L-27.5749 -505.334L-28.2316 -513.156"/>
 </g>
 <g stroke-width="8.503937">
  <path stroke="#0f0" d="M770.25 512.464L770.25 512.464L770.106 504.646L769.587 496.841L768.542 489.086L767.037 481.411L765.198 473.81L762.986 466.303L760.319 458.948L757.412 451.687L754.227 444.539L750.694 437.558L747.01 430.657L743.062 423.9L738.929 417.257L734.674 410.69L730.185 404.28L725.642 397.91L720.899 391.685L716.105 385.501L711.174 379.424L706.183 373.398L701.097 367.451L695.953 361.554L690.739 355.718L685.478 349.926L680.163 344.182L674.813 338.471L669.42 332.801L664.006 327.151L658.557 321.534L653.099 315.927L647.615 310.344L642.128 304.764L636.629 299.197L631.129 293.63L625.623 288.069L620.117 282.508L614.606 276.953L609.093 271.399L603.576 265.849L598.057 260.301L592.535 254.757L587.009 249.215L581.481 243.677L575.949 238.142L570.414 232.609L564.875 227.081L559.335 221.555L553.789 216.034L548.243 210.513L542.691 204.999L537.138 199.485L531.578 193.977L526.018 188.471L520.453 182.969L514.886 177.47L509.314 171.975L503.74 166.483L498.162 160.994L492.58 155.51L486.996 150.027L481.406 144.551L475.816 139.075L470.218 133.606L464.621 128.137L459.017 122.675L453.412 117.214L447.801 111.76L442.188 106.307L436.571 100.858L430.95 95.4136L425.326 89.9721L419.697 84.5356L414.067 79.1007L408.43 73.6725L402.793 68.2445L397.149 62.8247L391.504 57.4049L385.852 51.9922L380.199 46.5809L374.541 41.175L368.88 35.7723L363.215 30.3733L357.546 24.9793L351.874 19.5872L346.197 14.2016L340.519 8.81608L334.836 3.43692L329.152 -1.94224L323.466 -7.31858L317.779 -12.6941L312.092 -18.0692L306.404 -23.4439L300.717 -28.8193L295.031 -34.1959L289.345 -39.573L283.664 -44.9543L277.982 -50.3357L272.307 -55.7233L266.633 -61.1121L260.964 -66.5072L255.299 -71.9063L249.639 -77.3102L243.987 -82.7223L238.337 -88.1367L232.7 -93.5647L227.063 -98.9927L221.443 -104.438L215.824 -109.885L210.22 -115.346L204.622 -120.815L199.036 -126.295L193.462 -131.788L187.896 -137.288L182.35 -142.809L176.806 -148.332L171.291 -153.883L165.775 -159.435L160.29 -165.016L154.809 -170.602L149.355 -176.213L143.912 -181.836L138.492 -187.48L133.091 -193.143L127.709 -198.823L122.355 -204.53L117.013 -210.25L111.71 -216.004L106.415 -221.766L101.167 -227.571L95.9223 -233.379L90.7359 -239.239L85.5494 -245.099L80.4275 -251.015L75.3078 -256.933L70.2542 -262.908L65.2074 -268.889L60.2313 -274.928L55.2661 -280.977L50.382 -287.091L45.5131 -293.217L40.738 -299.417L35.982 -305.631L31.3345 -311.927L26.7093 -318.239L22.2098 -324.641L17.7344 -331.061L13.4048 -337.579L9.09948 -344.114L4.96316 -350.756L0.849458 -357.413L-3.06906 -364.187L-6.96743 -370.972L-10.6439 -377.88L-14.3016 -384.798L-17.7125 -391.841L-21.1037 -398.894L-24.2259 -406.069L-27.3256 -413.254L-30.1365 -420.558L-32.9218 -427.871L-35.3998 -435.293L-37.8502 -442.725L-39.9761 -450.256L-42.0747 -457.795L-43.8319 -465.42L-45.565 -473.051L-46.9418 -480.755L-48.2983 -488.462L-49.2897 -496.224L-50.2587 -503.989L-50.8693 -511.79"/>
 </g>
 <g stroke-width="8.503937">
  <path stroke="#0f0" d="M747.643 509.351L747.643 509.351L747.236 501.562L746.298 493.822L744.863 486.161L742.969 478.601L740.662 471.154L737.946 463.842L734.819 456.699L731.43 449.677L727.82 442.764L723.885 436.03L719.777 429.403L715.536 422.857L711.04 416.484L706.47 410.165L701.743 403.961L696.912 397.838L691.998 391.782L686.968 385.821L681.899 379.894L676.719 374.063L671.523 368.247L666.232 362.516L660.934 356.792L655.563 351.136L650.188 345.485L644.762 339.882L639.332 334.284L633.872 328.714L628.406 323.15L622.929 317.597L617.448 312.048L611.963 306.503L606.475 300.961L600.985 295.421L595.491 289.885L589.995 284.351L584.494 278.821L578.993 273.292L573.485 267.769L567.978 262.246L562.465 256.73L556.951 251.213L551.431 245.703L545.911 240.193L540.385 234.688L534.858 229.185L529.327 223.687L523.792 218.191L518.255 212.698L512.713 207.21L507.17 201.723L501.621 196.242L496.071 190.761L490.515 185.288L484.959 179.814L479.396 174.347L473.832 168.881L468.263 163.421L462.692 157.962L457.116 152.508L451.537 147.058L445.955 141.61L440.369 136.168L434.78 130.727L429.186 125.292L423.591 119.858L417.989 114.431L412.387 109.004L406.778 103.585L401.168 98.1664L395.552 92.7537L389.934 87.3435L384.312 81.9375L378.686 76.5357L373.057 71.1365L367.423 65.7432L361.788 60.3508L356.145 54.9661L350.503 49.5813L344.853 44.2044L339.202 38.8282L333.546 33.458L327.887 28.0903L322.226 22.7256L316.561 17.3643L310.896 12.0039L305.227 6.64614L299.559 1.28842L293.89 -4.06849L288.222 -9.42539L282.554 -14.7838L276.887 -20.1426L271.222 -25.5039L265.56 -30.8674L259.899 -36.2331L254.243 -41.604L248.588 -46.9753L242.942 -52.3565L237.296 -57.7376L231.66 -63.129L226.027 -68.5232L220.402 -73.9259L214.783 -79.3359L209.17 -84.7514L203.57 -90.1801L197.971 -95.61L192.392 -101.06L186.813 -106.511L181.253 -111.981L175.698 -117.456L170.159 -122.947L164.632 -128.449L159.115 -133.963L153.618 -139.496L148.126 -145.034L142.664 -150.601L137.201 -156.168L131.774 -161.771L126.349 -167.374L120.956 -173.009L115.574 -178.653L110.218 -184.323L104.881 -190.011L99.5659 -195.719L94.2801 -201.454L89.0093 -207.203L83.7791 -212.989L78.5572 -218.783L73.3879 -224.623L68.2202 -230.465L63.1171 -236.364L58.0144 -242.262L52.9783 -248.218L47.9482 -254.179L42.9858 -260.196L38.037 -266.224L33.1611 -272.312L28.3083 -278.418L23.5332 -284.584L18.793 -290.778L14.1344 -297.033L9.52447 -303.325L4.99884 -309.676L0.538242 -316.074L-3.83702 -322.53L-8.12807 -329.043L-12.3349 -335.61L-16.435 -342.245L-20.455 -348.928L-24.3416 -355.69L-28.1562 -362.493L-31.806 -369.386L-35.3971 -376.308L-38.7862 -383.333L-42.136 -390.376L-45.241 -397.531L-48.3254 -404.695L-51.1312 -411.972L-53.922 -419.255L-56.4205 -426.643L-58.8861 -434.043L-61.0771 -441.527L-63.1915 -449.035L-65.0745 -456.602L-66.8198 -464.204L-68.3923 -471.842L-69.754 -479.521L-71.0174 -487.217L-71.9849 -494.956L-72.9254 -502.698L-73.5109 -510.476"/>
 </g>
 <g stroke-width="8.503937">
  <path stroke="#00f" d="M-1303.94 524.409L-1303.94 -524.409"/>
 </g>
 <g stroke-width="8.503937">
  <path stroke="#00f" d="M-1077.17 524.409L-1077.17 -524.409"/>
 </g>
 <g stroke-width="8.503937">
  <path stroke="#00f" d="M-850.394 524.409L-850.394 -524.409"/>
 </g>
 <g stroke-width="8.503937">
  <path stroke="#00f" d="M-623.622 524.409L-623.622 -524.409"/>
 </g>
 <g stroke-width="8.503937">
  <path stroke="#00f" d="M-396.85 524.409L-396.85 -524.409"/>
 </g>
 <g stroke-width="8.503937">
  <path stroke="#00f" d="M-170.079 524.409L-170.079 -524.409"/>
 </g>
 <g stroke-width="8.503937">
  <path stroke="#00f" d="M56.6929 524.409L56.6929 -243.825"/>
 </g>
 <g stroke-width="8.503937">
  <path stroke="#00f" d="M283.465 524.409L283.465 -13.923"/>
 </g>
 <g stroke-width="8.503937">
  <path stroke="#00f" d="M283.465 -524.409L283.465 -202.306"/>
 </g>
 <g stroke-width="8.503937">
  <path stroke="#00f" d="M510.236 524.409L510.236 204.758"/>
 </g>
 <g stroke-width="8.503937">
  <path stroke="#00f" d="M510.236 -524.409L510.236 14.3564"/>
 </g>
 <g stroke-width="8.503937">
  <path stroke="#00f" d="M737.008 524.409L737.008 461.7"/>
 </g>
 <g stroke-width="8.503937">
  <path stroke="#00f" d="M737.008 -524.409L737.008 239.56"/>
 </g>
 <g stroke-width="8.503937">
  <path stroke="#00f" d="M963.78 524.409L963.78 -524.409"/>
 </g>
 <g stroke-width="8.503937">
  <path stroke="#00f" d="M1190.55 524.409L1190.55 -524.409"/>
 </g>
 <g stroke-width="8.503937">
  <path stroke="#f00" d="M-1374.8 453.543L733.296 453.543"/>
 </g>
 <g stroke-width="8.503937">
  <path stroke="#f00" d="M1374.8 453.543L877.004 453.543"/>
 </g>
 <g stroke-width="8.503937">
  <path stroke="#f00" d="M-1374.8 226.772L532.43 226.772"/>
 </g>
 <g stroke-width="8.503937">
  <path stroke="#f00" d="M1374.8 226.772L724.457 226.772"/>
 </g>
 <g stroke-width="8.503937">
  <path stroke="#f00" d="M-1374.8 -0L298.196 -0"/>
 </g>
 <g stroke-width="8.503937">
  <path stroke="#f00" d="M1374.8 -0L495.383 -0"/>
 </g>
 <g stroke-width="8.503937">
  <path stroke="#f00" d="M-1374.8 -226.772L71.4875 -226.772"/>
 </g>
 <g stroke-width="8.503937">
  <path stroke="#f00" d="M1374.8 -226.772L258.722 -226.772"/>
 </g>
 <g stroke-width="8.503937">
  <path stroke="#f00" d="M-1374.8 -453.543L-64.3133 -453.543"/>
 </g>
 <g stroke-width="8.503937">
  <path stroke="#f00" d="M1374.8 -453.543L78.8106 -453.543"/>
 </g>
</svg>
