<?xml version="1.0" encoding="utf-8"?>
<svg xmlns="http://www.w3.org/2000/svg" x="-1421.57pt" viewBox="-1421.57 -635.509 2843.15 1262.35" height="1262.35pt" stroke-miterlimit="10.000000" fill="none" width="2843.15pt" y="-635.509pt" stroke-width="0.566929" version="1.1">
 <g stroke-width="8.503937">
  <path stroke="#000" d="M-1417.32 566.929L1417.32 566.929L1417.32 -566.929L-1417.32 -566.929L-1417.32 566.929"/>
 </g>
 <g stroke-width="8.503937">
  <path stroke="#000" d="M-1391.81 541.417L1391.81 541.417L1391.81 -541.417L-1391.81 -541.417Z"/>
 </g>
 <g stroke-width="8.503937">
  <path stroke="#000" d="M-1366.3 515.906L1366.3 515.906L1366.3 -515.906L-1366.3 -515.906Z"/>
 </g>
 <g stroke-width="8.503937">
  <path stroke="#f00" d="M782.374 622.592L791.768 605.18L799.508 588.182L805.66 571.581L810.292 555.362L813.472 539.507L815.265 524.001L815.74 508.827L814.964 493.969L813.003 479.41L809.924 465.134L805.796 451.125L800.684 437.366L794.657 423.841L787.781 410.533L780.123 397.427L771.751 384.506L762.732 371.754L753.132 359.153L743.019 346.688L732.461 334.343L721.524 322.101L710.275 309.946L698.781 297.861L687.111 285.83L675.33 273.837L663.504 261.866L651.664 249.908L639.808 237.962L627.936 226.027L616.046 214.102L604.135 202.186L592.203 190.278L580.247 178.375L568.265 166.478L556.257 154.585L544.22 142.696L532.153 130.808L520.053 118.92L507.92 107.033L495.751 95.1433L483.545 83.2513L471.3 71.3554L459.014 59.4546L446.686 47.5476L434.314 35.6334L421.896 23.7107L409.431 11.7785L396.917 -0.164441L384.351 -12.1192L371.735 -24.0866L359.078 -36.0656L346.395 -48.0542L333.7 -60.0506L321.008 -72.0529L308.332 -84.0592L295.687 -96.0676L283.087 -108.076L270.548 -120.083L258.083 -132.087L245.706 -144.084L233.432 -156.075L221.275 -168.056L209.25 -180.027L197.371 -191.984L185.652 -203.926L174.108 -215.852L162.752 -227.759L151.6 -239.645L140.666 -251.509L129.964 -263.348L119.509 -275.162L109.314 -286.947L99.3942 -298.702L89.7664 -310.43L80.4535 -322.148L71.4793 -333.874L62.8678 -345.627L54.6427 -357.425L46.8282 -369.286L39.4479 -381.229L32.5259 -393.272L26.086 -405.435L20.1522 -417.734L14.7483 -430.19L9.89828 -442.819L5.62598 -455.641L1.95532 -468.675L-1.08979 -481.938L-3.48546 -495.449L-5.20779 -509.226L-6.23287 -523.289L-6.53681 -537.655L-6.0957 -552.343L-4.88564 -567.371L-2.88273 -582.758L-0.0630804 -598.523L3.59722 -614.683L8.12207 -631.257"/>
 </g>
</svg>
