<?xml version="1.0" encoding="utf-8"?>
<svg xmlns="http://www.w3.org/2000/svg" x="-1421.57pt" viewBox="-1421.57 -653.426 2843.15 1312.57" height="1312.57pt" stroke-miterlimit="10.000000" fill="none" width="2843.15pt" y="-653.426pt" stroke-width="0.566929" version="1.1">
 <g stroke-width="8.503937">
  <path stroke="#000" d="M-1417.32 566.929L1417.32 566.929L1417.32 -566.929L-1417.32 -566.929L-1417.32 566.929"/>
 </g>
 <g stroke-width="8.503937">
  <path stroke="#000" d="M-1391.81 541.417L1391.81 541.417L1391.81 -541.417L-1391.81 -541.417Z"/>
 </g>
 <g stroke-width="8.503937">
  <path stroke="#000" d="M-1366.3 515.906L1366.3 515.906L1366.3 -515.906L-1366.3 -515.906Z"/>
 </g>
 <g stroke-width="8.503937">
  <path stroke="#0f0" d="M842.247 654.895L851.641 637.483C852.368 636.136 853.049 634.765 853.683 633.372L861.423 616.374C862.103 614.88 862.729 613.363 863.299 611.824L869.451 595.223C870.056 593.592 870.598 591.938 871.076 590.264L875.708 574.045C876.208 572.294 876.638 570.524 876.996 568.738L880.175 552.884C880.544 551.043 880.837 549.189 881.053 547.324L882.846 531.818C883.065 529.928 883.204 528.03 883.264 526.129L883.739 510.955C883.798 509.062 883.778 507.167 883.679 505.276L882.902 490.417C882.806 488.568 882.633 486.723 882.386 484.887L880.425 470.328C880.187 468.564 879.881 466.81 879.505 465.069L876.427 450.794C876.072 449.148 875.657 447.517 875.181 445.903L871.052 431.894C870.609 430.39 870.114 428.902 869.569 427.433L864.457 413.674C863.955 412.323 863.411 410.989 862.824 409.673L856.797 396.148C856.264 394.953 855.697 393.773 855.097 392.611L848.22 379.303C847.681 378.259 847.114 377.228 846.521 376.213L838.863 363.107C838.335 362.203 837.786 361.312 837.217 360.434L828.845 347.513C828.344 346.739 827.827 345.975 827.294 345.223L818.275 332.47C817.811 331.813 817.335 331.165 816.847 330.526L807.248 317.925C806.828 317.374 806.4 316.829 805.963 316.291L795.85 303.826C795.48 303.369 795.103 302.917 794.72 302.47L784.162 290.125C783.843 289.752 783.521 289.383 783.194 289.017L772.257 276.775C771.992 276.479 771.725 276.185 771.455 275.893L760.206 263.738C759.996 263.511 759.784 263.286 759.572 263.062L748.078 250.977C747.924 250.815 747.768 250.653 747.612 250.492L735.941 238.461C735.843 238.359 735.743 238.257 735.644 238.156L723.863 226.163C723.818 226.117 723.773 226.072 723.729 226.027L711.903 214.055C711.884 214.036 711.865 214.018 711.847 213.999L700.006 202.041C699.988 202.022 699.97 202.004 699.952 201.986L688.097 190.04C688.078 190.021 688.059 190.002 688.041 189.984L676.169 178.049C676.15 178.03 676.131 178.011 676.112 177.992L664.221 166.067C664.202 166.047 664.182 166.028 664.163 166.008L652.252 154.092C652.232 154.072 652.213 154.052 652.193 154.033L640.26 142.124C640.24 142.104 640.22 142.084 640.2 142.064L628.244 130.161C628.223 130.141 628.203 130.12 628.182 130.1L616.201 118.203C616.18 118.182 616.159 118.162 616.138 118.141L604.129 106.248C604.108 106.227 604.087 106.206 604.066 106.185L592.029 94.2951C592.007 94.2737 591.985 94.2524 591.964 94.2311L579.896 82.3431C579.874 82.3215 579.852 82.2999 579.83 82.2783L567.731 70.391C567.709 70.3691 567.686 70.3473 567.664 70.3254L555.531 58.4377C555.508 58.4156 555.486 58.3934 555.463 58.3713L543.294 46.482C543.271 46.4596 543.248 46.4373 543.225 46.4149L531.019 34.5229C530.996 34.5003 530.973 34.4777 530.949 34.4551L518.704 22.5593C518.681 22.5364 518.657 22.5136 518.634 22.4908L506.348 10.5899C506.324 10.5669 506.301 10.5438 506.277 10.5208L493.949 -1.38619C493.925 -1.40945 493.901 -1.4327 493.876 -1.45593L481.504 -13.3702C481.48 -13.3936 481.456 -13.4171 481.431 -13.4405L469.014 -25.3632C468.989 -25.3868 468.964 -25.4104 468.94 -25.434L456.474 -37.3662C456.45 -37.3901 456.425 -37.4138 456.4 -37.4376L443.885 -49.3805C443.86 -49.4045 443.835 -49.4284 443.81 -49.4524L431.245 -61.4071C431.22 -61.4304 431.196 -61.4537 431.171 -61.477L418.555 -73.4444C418.537 -73.462 418.518 -73.4795 418.5 -73.4971L405.843 -85.476C405.832 -85.4859 405.822 -85.4958 405.811 -85.5057L393.128 -97.4943C393.126 -97.4966 393.123 -97.4989 393.121 -97.5012L380.434 -109.49L367.77 -121.465L355.147 -133.421L342.579 -145.356L330.081 -157.268L317.668 -169.155L305.353 -181.013L293.152 -192.84L281.08 -204.634L269.15 -216.391L257.379 -228.109L245.781 -239.783L234.371 -251.41L223.165 -262.987L212.176 -274.509L201.421 -285.973L190.915 -297.373L180.672 -308.704L170.708 -319.962L161.038 -331.14L151.685 -342.224L142.691 -353.18L134.101 -363.989L125.936 -374.657L118.218 -385.191L110.961 -395.599L104.182 -405.889L97.8909 -416.07L92.0971 -426.15L86.8057 -436.143L82.0192 -446.065L77.7371 -455.935L73.957 -465.778L70.6756 -475.626L67.8898 -485.518L65.5987 -495.497L63.8048 -505.614L62.516 -515.923L61.7463 -526.484L61.5163 -537.353L61.8537 -548.589L62.7923 -560.246L64.3708 -572.372L66.6316 -585.012L69.6191 -598.202L73.7518 -613.34"/>
 </g>
 <g stroke-width="8.503937">
  <path stroke="#0f0" d="M822.289 644.127L831.683 626.715C832.168 625.817 832.622 624.903 833.045 623.974L840.784 606.976C841.238 605.981 841.655 604.969 842.035 603.943L848.188 587.343C848.591 586.255 848.952 585.152 849.271 584.037L853.903 567.817C854.236 566.65 854.523 565.47 854.761 564.279L857.941 548.425C858.187 547.198 858.382 545.961 858.526 544.718L860.319 529.212C860.465 527.953 860.558 526.687 860.598 525.42L861.072 510.246C861.112 508.984 861.099 507.72 861.033 506.459L860.256 491.601C860.192 490.368 860.077 489.138 859.912 487.914L857.951 473.355C857.793 472.179 857.588 471.01 857.338 469.85L854.259 455.574C854.023 454.477 853.746 453.389 853.429 452.313L849.3 438.304C849.005 437.301 848.675 436.31 848.311 435.33L843.199 421.571C842.865 420.671 842.502 419.781 842.111 418.904L836.084 405.379C835.728 404.582 835.35 403.796 834.95 403.021L828.074 389.713C827.714 389.017 827.336 388.33 826.941 387.653L819.283 374.547C818.931 373.945 818.565 373.35 818.186 372.765L809.814 359.844C809.48 359.328 809.135 358.819 808.78 358.317L799.761 345.564C799.451 345.127 799.134 344.695 798.809 344.268L789.209 331.668C788.929 331.3 788.644 330.937 788.353 330.578L778.24 318.114C777.993 317.809 777.742 317.507 777.487 317.209L766.928 304.864C766.716 304.616 766.501 304.37 766.283 304.126L755.346 291.884C755.169 291.686 754.991 291.49 754.811 291.296L743.562 279.141C743.422 278.989 743.281 278.839 743.139 278.69L731.646 266.605C731.543 266.497 731.439 266.389 731.335 266.282L719.665 254.251C719.599 254.183 719.532 254.115 719.466 254.047L707.685 242.054C707.655 242.024 707.626 241.994 707.596 241.964L695.77 229.992C695.757 229.98 695.745 229.967 695.732 229.954L683.892 217.996C683.88 217.984 683.868 217.972 683.856 217.96L672.001 206.014C671.988 206.001 671.976 205.989 671.963 205.976L660.091 194.042C660.079 194.029 660.066 194.016 660.053 194.003L648.163 182.079C648.15 182.066 648.137 182.053 648.124 182.04L636.213 170.123C636.2 170.11 636.187 170.097 636.174 170.084L624.241 158.175C624.228 158.162 624.214 158.148 624.201 158.135L612.245 146.233C612.231 146.219 612.217 146.205 612.204 146.192L600.222 134.295C600.208 134.281 600.194 134.267 600.18 134.253L588.172 122.361C588.158 122.346 588.144 122.332 588.129 122.318L576.092 110.429C576.078 110.414 576.064 110.4 576.049 110.386L563.982 98.4979C563.967 98.4835 563.952 98.4691 563.938 98.4547L551.838 86.5674C551.823 86.5529 551.809 86.5383 551.794 86.5237L539.66 74.636C539.645 74.6212 539.63 74.6065 539.615 74.5917L527.446 62.7025C527.431 62.6875 527.416 62.6726 527.4 62.6577L515.194 50.7657C515.179 50.7506 515.163 50.7356 515.148 50.7205L502.903 38.8246C502.887 38.8094 502.871 38.7942 502.856 38.779L490.57 26.8781C490.554 26.8628 490.538 26.8474 490.522 26.8321L478.195 14.9251C478.178 14.9096 478.162 14.8941 478.146 14.8786L465.774 2.96433C465.758 2.9487 465.742 2.93307 465.726 2.91746L453.308 -9.00521C453.291 -9.02097 453.275 -9.03671 453.259 -9.05245L440.793 -20.9847C440.777 -21.0005 440.76 -21.0164 440.744 -21.0322L428.229 -32.9752C428.212 -32.9911 428.196 -33.0071 428.179 -33.0231L415.614 -44.9778C415.597 -44.9934 415.581 -45.0089 415.565 -45.0244L402.948 -56.9918C402.936 -57.0035 402.924 -57.0152 402.911 -57.0269L390.255 -69.0059C390.248 -69.0125 390.241 -69.0191 390.234 -69.0257L377.551 -81.0143C377.549 -81.0158 377.547 -81.0173 377.546 -81.0189L364.856 -93.01L352.183 -104.994L339.542 -116.967L326.949 -128.927L314.417 -140.871L301.961 -152.797L289.596 -164.704L277.337 -176.588L265.197 -188.448L253.192 -200.28L241.336 -212.081L229.644 -223.85L218.132 -235.582L206.812 -247.275L195.702 -258.926L184.814 -270.53L174.165 -282.085L163.769 -293.585L153.642 -305.028L143.797 -316.409L134.255 -327.717L125.05 -338.93L116.218 -350.042L107.784 -361.063L99.7676 -372.003L92.1884 -382.875L85.0639 -393.688L78.4099 -404.456L72.24 -415.191L66.5658 -425.907L61.3969 -436.621L56.7408 -447.353L52.6041 -458.125L48.9924 -468.965L45.9116 -479.903L43.3692 -490.977L41.3747 -502.225L39.9414 -513.691L39.0866 -525.419L38.8319 -537.454L39.2039 -549.84L40.233 -562.621L41.953 -575.834L44.4 -589.516L47.6118 -603.695L51.8752 -619.312"/>
 </g>
 <g stroke-width="8.503937">
  <path stroke="#0f0" d="M802.332 633.359L811.726 615.947C811.968 615.498 812.195 615.041 812.406 614.577L820.146 597.579C820.373 597.081 820.581 596.575 820.771 596.062L826.924 579.462C827.125 578.918 827.306 578.367 827.465 577.809L832.098 561.589C832.264 561.006 832.408 560.416 832.527 559.821L835.706 543.966C835.829 543.353 835.927 542.734 835.999 542.113L837.792 526.607C837.865 525.977 837.912 525.344 837.932 524.71L838.406 509.536C838.426 508.905 838.42 508.274 838.387 507.643L837.61 492.785C837.578 492.168 837.52 491.553 837.438 490.941L835.477 476.382C835.398 475.794 835.295 475.21 835.17 474.63L832.092 460.354C831.974 459.805 831.835 459.262 831.676 458.723L827.548 444.714C827.4 444.213 827.235 443.717 827.053 443.227L821.942 429.468C821.775 429.018 821.593 428.573 821.398 428.135L815.37 414.61C815.193 414.211 815.004 413.818 814.803 413.431L807.927 400.123C807.747 399.775 807.558 399.432 807.361 399.093L799.703 385.987C799.527 385.686 799.344 385.389 799.154 385.096L790.782 372.175C790.615 371.917 790.443 371.663 790.265 371.412L781.246 358.659C781.091 358.44 780.933 358.224 780.77 358.011L771.171 345.41C771.031 345.227 770.888 345.045 770.742 344.866L760.63 332.401C760.506 332.249 760.38 332.098 760.253 331.949L749.694 319.604C749.588 319.48 749.481 319.356 749.372 319.235L738.435 306.993C738.346 306.894 738.257 306.796 738.167 306.699L726.918 294.543C726.848 294.468 726.778 294.393 726.707 294.318L715.214 282.233C715.162 282.179 715.11 282.125 715.058 282.071L703.388 270.041C703.355 270.007 703.321 269.973 703.288 269.939L691.507 257.946C691.493 257.931 691.478 257.915 691.463 257.9L679.637 245.929C679.631 245.923 679.624 245.916 679.618 245.91L667.778 233.952C667.772 233.946 667.766 233.94 667.76 233.934L655.904 221.988C655.898 221.982 655.892 221.976 655.886 221.969L644.014 210.035C644.008 210.028 644.001 210.022 643.995 210.015L632.104 198.091C632.098 198.084 632.091 198.078 632.085 198.071L620.174 186.155C620.168 186.148 620.161 186.142 620.154 186.135L608.222 174.226C608.215 174.22 608.209 174.213 608.202 174.206L596.246 162.304C596.239 162.297 596.232 162.29 596.225 162.284L584.244 150.387C584.237 150.38 584.23 150.373 584.223 150.366L572.215 138.473C572.207 138.466 572.2 138.459 572.193 138.452L560.156 126.562C560.149 126.555 560.142 126.548 560.135 126.541L548.067 114.653C548.06 114.646 548.052 114.638 548.045 114.631L535.946 102.744C535.938 102.737 535.931 102.729 535.923 102.722L523.79 90.8343C523.782 90.8269 523.775 90.8195 523.767 90.8122L511.598 78.9229C511.591 78.9154 511.583 78.908 511.576 78.9005L499.369 67.0085C499.362 67.001 499.354 66.9934 499.346 66.9859L487.101 55.09C487.093 55.0824 487.086 55.0748 487.078 55.0672L474.792 43.1664C474.784 43.1587 474.776 43.151 474.768 43.1433L462.44 31.2363C462.432 31.2286 462.424 31.2208 462.416 31.2131L450.044 19.2988C450.036 19.291 450.028 19.2832 450.02 19.2754L437.602 7.35274C437.594 7.34486 437.586 7.33699 437.577 7.32912L425.112 -4.6031C425.104 -4.61103 425.096 -4.61896 425.087 -4.62689L412.573 -16.5698C412.565 -16.5778 412.556 -16.5858 412.548 -16.5938L399.983 -28.5485C399.974 -28.5563 399.966 -28.564 399.958 -28.5718L387.342 -40.5392C387.336 -40.5451 387.33 -40.5509 387.323 -40.5568L374.667 -52.5357C374.663 -52.539 374.66 -52.5423 374.656 -52.5456L361.973 -64.5343C361.972 -64.535 361.971 -64.5358 361.971 -64.5365L349.278 -76.5303L336.595 -88.5235L323.937 -100.513L311.318 -112.497L298.752 -124.474L286.254 -136.44L273.839 -148.395L261.521 -160.336L249.314 -172.261L237.233 -184.168L225.293 -196.054L213.508 -207.917L201.892 -219.754L190.46 -231.563L179.227 -243.342L168.207 -255.087L157.416 -266.797L146.867 -278.467L136.575 -290.095L126.555 -301.678L116.824 -313.209L107.408 -324.68L98.3359 -336.095L89.6316 -347.469L81.3177 -358.815L73.4156 -370.15L65.946 -381.487L58.9289 -392.842L52.383 -404.232L46.3259 -415.671L40.7745 -427.178L35.7446 -438.771L31.2512 -450.472L27.3092 -462.303L23.9335 -474.289L21.1397 -486.457L18.9446 -498.837L17.3668 -511.459L16.4268 -524.354L16.1476 -537.554L16.5541 -551.092L17.6737 -564.996L19.5351 -579.296L22.1685 -594.019L25.6045 -609.189L29.9986 -625.285"/>
 </g>
 <g stroke-width="8.503937">
  <path stroke="#0f0" d="M782.374 622.592L791.768 605.18L799.508 588.182L805.66 571.581L810.292 555.362L813.472 539.507L815.265 524.001L815.74 508.827L814.964 493.969L813.003 479.41L809.924 465.134L805.796 451.125L800.684 437.366L794.657 423.841L787.781 410.533L780.123 397.427L771.751 384.506L762.732 371.754L753.132 359.153L743.019 346.688L732.461 334.343L721.524 322.101L710.275 309.946L698.781 297.861L687.111 285.83L675.33 273.837L663.504 261.866L651.664 249.908L639.808 237.962L627.936 226.027L616.046 214.102L604.135 202.186L592.203 190.278L580.247 178.375L568.265 166.478L556.257 154.585L544.22 142.696L532.153 130.808L520.053 118.92L507.92 107.033L495.751 95.1433L483.545 83.2513L471.3 71.3554L459.014 59.4546L446.686 47.5476L434.314 35.6334L421.896 23.7107L409.431 11.7785L396.917 -0.164441L384.351 -12.1192L371.735 -24.0866L359.078 -36.0656L346.395 -48.0542L333.7 -60.0506L321.008 -72.0529L308.332 -84.0592L295.687 -96.0676L283.087 -108.076L270.548 -120.083L258.083 -132.087L245.706 -144.084L233.432 -156.075L221.275 -168.056L209.25 -180.027L197.371 -191.984L185.652 -203.926L174.108 -215.852L162.752 -227.759L151.6 -239.645L140.666 -251.509L129.964 -263.348L119.509 -275.162L109.314 -286.947L99.3942 -298.702L89.7664 -310.43L80.4535 -322.148L71.4793 -333.874L62.8678 -345.627L54.6427 -357.425L46.8282 -369.286L39.4479 -381.229L32.5259 -393.272L26.086 -405.435L20.1522 -417.734L14.7483 -430.19L9.89828 -442.819L5.62598 -455.641L1.95532 -468.675L-1.08979 -481.938L-3.48546 -495.449L-5.20779 -509.226L-6.23287 -523.289L-6.53681 -537.655L-6.0957 -552.343L-4.88564 -567.371L-2.88273 -582.758L-0.0630804 -598.523L3.59722 -614.683L8.12207 -631.257"/>
 </g>
 <g stroke-width="8.503937">
  <path stroke="#0f0" d="M762.416 611.824L771.447 595.086L778.529 579.531L784.094 564.516L788.237 550.01L791.053 535.969L792.629 522.341L793.045 509.065L792.366 496.078L790.647 483.319L787.934 470.737L784.265 458.287L779.677 445.938L774.21 433.669L767.904 421.466L760.807 409.319L752.97 397.224L744.449 385.176L735.303 373.171L725.594 361.204L715.386 349.269L704.745 337.358L693.736 325.462L682.426 313.57L670.883 301.671L659.174 289.751L647.38 277.812L635.559 265.873L623.722 253.946L611.869 242.03L599.997 230.124L588.106 218.228L576.194 206.339L564.258 194.457L552.297 182.58L540.31 170.708L528.295 158.84L516.249 146.973L504.171 135.108L492.061 123.242L479.914 111.375L467.731 99.5054L455.51 87.6323L443.248 75.7544L430.944 63.8705L418.596 51.9796L406.203 40.0805L393.762 28.172L381.273 16.2529L368.733 4.32177L356.138 -7.62524L343.496 -19.5905L330.819 -31.573L318.125 -43.5683C318.123 -43.5701 318.121 -43.5718 318.119 -43.5736L305.427 -55.5759C305.422 -55.5802 305.418 -55.5845 305.413 -55.5888L292.737 -67.595C292.73 -67.6019 292.723 -67.6087 292.716 -67.6156L280.071 -79.6239C280.061 -79.6334 280.051 -79.6428 280.041 -79.6522L267.442 -91.6608C267.429 -91.6728 267.416 -91.6849 267.404 -91.697L254.864 -103.704C254.849 -103.719 254.834 -103.733 254.818 -103.748L242.353 -115.751C242.335 -115.769 242.317 -115.786 242.299 -115.804L229.922 -127.802C229.901 -127.822 229.88 -127.843 229.859 -127.863L217.585 -139.854C217.561 -139.877 217.537 -139.9 217.513 -139.924L205.357 -151.905C205.33 -151.932 205.303 -151.958 205.277 -151.985L193.251 -163.955C193.222 -163.984 193.192 -164.014 193.162 -164.044L181.283 -176.001C181.25 -176.034 181.217 -176.068 181.185 -176.101L169.466 -188.043C169.43 -188.08 169.394 -188.117 169.358 -188.154L157.814 -200.079C157.775 -200.12 157.736 -200.16 157.697 -200.201L146.341 -212.108C146.299 -212.153 146.257 -212.198 146.214 -212.243L135.062 -224.129C135.017 -224.178 134.971 -224.227 134.925 -224.276L123.991 -236.14C123.942 -236.194 123.892 -236.248 123.843 -236.302L113.141 -248.142C113.088 -248.2 113.036 -248.259 112.983 -248.319L102.527 -260.132C102.471 -260.196 102.414 -260.261 102.358 -260.325L92.1633 -272.111C92.1027 -272.181 92.0425 -272.251 91.9828 -272.322L82.0631 -284.077C81.997 -284.155 81.9314 -284.234 81.8663 -284.313L72.2386 -296.042C72.1627 -296.134 72.0876 -296.227 72.0132 -296.321L62.7003 -308.039C62.6142 -308.147 62.5291 -308.256 62.445 -308.366L53.4708 -320.092C53.3749 -320.218 53.2804 -320.344 53.1871 -320.471L44.5755 -332.224C44.4704 -332.367 44.367 -332.512 44.2652 -332.658L36.0402 -344.456C35.9267 -344.618 35.8153 -344.783 35.7061 -344.949L27.8915 -356.81C27.7707 -356.993 27.6525 -357.178 27.5371 -357.365L20.1569 -369.308C20.0302 -369.513 19.9069 -369.72 19.7868 -369.929L12.8648 -381.972C12.7342 -382.199 12.6075 -382.429 12.4848 -382.661L6.04492 -394.823C5.91241 -395.073 5.78459 -395.326 5.66154 -395.581L-0.272282 -407.881C-0.404162 -408.154 -0.530541 -408.43 -0.651343 -408.708L-6.05523 -421.164C-6.18368 -421.46 -6.3058 -421.759 -6.4215 -422.06L-11.2715 -434.689C-11.3936 -435.007 -11.5085 -435.328 -11.6161 -435.651L-15.8884 -448.473C-16.0009 -448.811 -16.1055 -449.151 -16.202 -449.494L-19.8727 -462.527C-19.9728 -462.883 -20.0642 -463.24 -20.1468 -463.6L-23.1919 -476.863C-23.2768 -477.233 -23.3524 -477.605 -23.4187 -477.979L-25.8143 -491.49C-25.8818 -491.87 -25.9395 -492.252 -25.9875 -492.636L-27.7098 -506.413C-27.7582 -506.8 -27.7966 -507.189 -27.8249 -507.578L-28.85 -521.64C-28.8784 -522.029 -28.8967 -522.419 -28.905 -522.809L-29.2089 -537.175C-29.2171 -537.562 -29.2154 -537.949 -29.2038 -538.336L-28.7626 -553.024C-28.7512 -553.404 -28.7302 -553.784 -28.6997 -554.163L-27.4896 -569.191C-27.4599 -569.561 -27.421 -569.93 -27.3731 -570.298L-25.3702 -585.685C-25.3238 -586.042 -25.2689 -586.397 -25.2056 -586.751L-22.386 -602.515C-22.3251 -602.856 -22.2564 -603.195 -22.18 -603.532L-18.5197 -619.692C-18.4466 -620.015 -18.3665 -620.336 -18.2794 -620.655L-13.7545 -637.229"/>
 </g>
 <g stroke-width="8.503937">
  <path stroke="#0f0" d="M742.458 601.056L751.125 584.992L757.551 570.881L762.528 557.452L766.182 544.658L768.634 532.431L769.993 520.68L770.349 509.302L769.768 498.187L768.292 487.229L765.944 476.34L762.734 465.449L758.671 454.511L753.763 443.498L748.027 432.398L741.491 421.211L734.189 409.942L726.167 398.599L717.475 387.19L708.169 375.72L698.312 364.195L687.966 352.615L677.197 340.978L666.071 329.28L654.656 317.512L643.019 305.665L631.257 293.758L619.453 281.838L607.635 269.929L595.801 258.032L583.949 246.146L572.077 234.269L560.185 222.4L548.269 210.538L536.329 198.683L524.363 186.831L512.369 174.984L500.345 163.139L488.29 151.295L476.201 139.451L464.078 127.607L451.918 115.76L439.72 103.909L427.482 92.0541L415.202 80.1934L402.878 68.3259L390.509 56.4502L378.094 44.5654L365.629 32.6703L353.114 20.7627L340.541 8.83614L327.913 -3.11541L315.243 -15.0919L302.55 -27.086C302.546 -27.0895 302.542 -27.093 302.539 -27.0966L289.846 -39.0989C289.837 -39.1074 289.828 -39.116 289.819 -39.1246L277.143 -51.1309C277.128 -51.1445 277.114 -51.1582 277.1 -51.1719L264.455 -63.1803C264.435 -63.1991 264.415 -63.2179 264.395 -63.2368L251.796 -75.2454C251.771 -75.2695 251.746 -75.2936 251.72 -75.3177L239.181 -87.3246C239.15 -87.3541 239.119 -87.3836 239.089 -87.4131L226.623 -99.4165C226.587 -99.4514 226.551 -99.4865 226.515 -99.5215L214.138 -111.519C214.096 -111.56 214.054 -111.601 214.012 -111.642L201.738 -123.632C201.69 -123.679 201.643 -123.726 201.595 -123.773L189.438 -135.754C189.385 -135.807 189.331 -135.86 189.278 -135.913L177.253 -147.883C177.193 -147.942 177.134 -148.002 177.075 -148.061L165.195 -160.019C165.13 -160.085 165.064 -160.151 164.999 -160.218L153.28 -172.16C153.208 -172.234 153.136 -172.307 153.065 -172.381L141.52 -184.307C141.442 -184.388 141.364 -184.469 141.286 -184.551L129.931 -196.458C129.846 -196.547 129.761 -196.636 129.676 -196.726L118.525 -208.613C118.433 -208.711 118.341 -208.809 118.25 -208.908L107.316 -220.772C107.217 -220.879 107.118 -220.987 107.02 -221.095L96.3185 -232.935C96.2123 -233.052 96.1067 -233.17 96.0018 -233.289L85.5462 -245.102C85.4326 -245.231 85.3197 -245.36 85.2076 -245.489L75.0128 -257.274C74.8916 -257.414 74.7712 -257.555 74.6518 -257.697L64.7321 -269.452C64.5998 -269.609 64.4686 -269.766 64.3385 -269.925L54.7107 -281.653C54.559 -281.838 54.4087 -282.024 54.2599 -282.211L44.947 -293.929C44.7749 -294.146 44.6047 -294.364 44.4366 -294.584L35.4624 -306.31C35.2706 -306.561 35.0814 -306.813 34.8949 -307.068L26.2833 -318.82C26.073 -319.107 25.8662 -319.397 25.6627 -319.689L17.4377 -331.486C17.2106 -331.812 16.9878 -332.141 16.7694 -332.472L8.95481 -344.333C8.7132 -344.7 8.47692 -345.07 8.24606 -345.444L0.865815 -357.387C0.612555 -357.797 0.36584 -358.211 0.125766 -358.628L-6.79624 -370.672C-7.05754 -371.126 -7.31094 -371.586 -7.55632 -372.049L-13.9962 -384.211C-14.2612 -384.712 -14.5169 -385.217 -14.763 -385.727L-20.6968 -398.027C-20.9605 -398.574 -21.2133 -399.126 -21.4549 -399.683L-26.8588 -412.138C-27.1157 -412.73 -27.3599 -413.328 -27.5913 -413.93L-32.4414 -426.56C-32.6855 -427.195 -32.9152 -427.836 -33.1304 -428.482L-37.4027 -441.304C-37.6278 -441.98 -37.837 -442.661 -38.03 -443.346L-41.7007 -456.38C-41.9009 -457.09 -42.0836 -457.806 -42.2489 -458.526L-45.294 -471.789C-45.4638 -472.528 -45.615 -473.272 -45.7475 -474.019L-48.1432 -487.53C-48.2782 -488.291 -48.3936 -489.056 -48.4895 -489.823L-50.2118 -503.6C-50.3086 -504.375 -50.3854 -505.151 -50.4421 -505.929L-51.4672 -519.992C-51.5239 -520.77 -51.5605 -521.549 -51.5771 -522.33L-51.881 -536.696C-51.8974 -537.469 -51.8939 -538.243 -51.8707 -539.016L-51.4296 -553.704C-51.4067 -554.465 -51.3648 -555.225 -51.3037 -555.983L-50.0937 -571.011C-50.0341 -571.751 -49.9564 -572.489 -49.8605 -573.225L-47.8576 -588.612C-47.7648 -589.325 -47.6551 -590.036 -47.5285 -590.744L-44.7089 -606.508C-44.5871 -607.189 -44.4497 -607.867 -44.2969 -608.542L-40.6366 -624.702C-40.4905 -625.347 -40.3302 -625.989 -40.1559 -626.627L-35.6311 -643.202"/>
 </g>
 <g stroke-width="8.503937">
  <path stroke="#0f0" d="M722.501 590.289L730.804 574.898L736.572 562.231L740.961 550.387L744.126 539.306L746.215 528.892L747.357 519.02L747.653 509.54L747.17 500.296L745.937 491.139L743.954 481.943L741.204 472.612L737.664 463.084L733.316 453.327L728.151 443.331L722.175 433.103L715.409 422.66L707.885 412.022L699.646 401.208L690.744 390.236L681.238 379.121L671.188 367.872L660.658 356.494L649.716 344.989L638.428 333.352L626.864 321.579L615.133 309.705L603.348 297.803L591.548 285.913L579.733 274.035L567.9 262.168L556.048 250.31L544.176 238.461L532.281 226.62L520.361 214.785L508.416 202.954L496.444 191.128L484.442 179.305L472.408 167.482L460.342 155.661L448.242 143.838L436.105 132.014L423.93 120.186L411.715 108.354L399.459 96.5163L387.16 84.6721L374.816 72.82L362.425 60.9589L349.986 49.0876L337.495 37.2037L324.943 25.2975L312.33 13.3597L299.666 1.3893L286.975 -10.6037C286.969 -10.609 286.963 -10.6142 286.958 -10.6195L274.265 -22.6218C274.252 -22.6347 274.238 -22.6475 274.224 -22.6604L261.548 -34.6667C261.527 -34.6872 261.505 -34.7077 261.484 -34.7282L248.839 -46.7366C248.809 -46.7649 248.779 -46.7931 248.75 -46.8214L236.15 -58.83C236.112 -58.8661 236.075 -58.9023 236.037 -58.9384L223.497 -70.9454C223.451 -70.9895 223.405 -71.0338 223.359 -71.078L210.894 -83.0814C210.839 -83.1339 210.785 -83.1864 210.731 -83.239L198.354 -95.237C198.291 -95.298 198.228 -95.3591 198.165 -95.4204L185.891 -107.411C185.82 -107.481 185.748 -107.551 185.677 -107.621L173.52 -119.603C173.44 -119.682 173.36 -119.761 173.28 -119.841L161.254 -131.811C161.165 -131.9 161.076 -131.989 160.987 -132.079L149.108 -144.036C149.009 -144.135 148.911 -144.235 148.813 -144.335L137.094 -156.277C136.986 -156.387 136.878 -156.498 136.771 -156.608L125.227 -168.534C125.109 -168.656 124.992 -168.778 124.875 -168.9L113.52 -180.807C113.392 -180.941 113.265 -181.075 113.138 -181.21L101.987 -193.097C101.849 -193.244 101.711 -193.391 101.575 -193.54L90.6406 -205.403C90.4921 -205.564 90.3445 -205.726 90.1976 -205.889L79.4955 -217.728C79.3363 -217.904 79.1779 -218.081 79.0205 -218.259L68.5649 -230.073C68.3945 -230.265 68.2252 -230.459 68.057 -230.653L57.8622 -242.438C57.6804 -242.648 57.4999 -242.86 57.3207 -243.072L47.401 -254.827C47.2026 -255.062 47.0058 -255.299 46.8106 -255.536L37.1829 -267.265C36.9553 -267.542 36.7299 -267.821 36.5067 -268.102L27.1938 -279.82C26.9355 -280.145 26.6803 -280.472 26.4281 -280.802L17.4539 -292.528C17.1662 -292.904 16.8824 -293.283 16.6027 -293.665L7.9911 -305.417C7.6757 -305.848 7.36537 -306.282 7.06018 -306.72L-1.16484 -318.517C-1.50544 -319.006 -1.83962 -319.499 -2.16727 -319.996L-9.98185 -331.857C-10.3443 -332.407 -10.6987 -332.963 -11.045 -333.523L-18.4252 -345.466C-18.8051 -346.081 -19.1752 -346.702 -19.5353 -347.328L-26.4573 -359.372C-26.8493 -360.053 -27.2294 -360.742 -27.5974 -361.437L-34.0373 -373.6C-34.4348 -374.35 -34.8183 -375.109 -35.1874 -375.874L-41.1213 -388.173C-41.5169 -388.993 -41.896 -389.821 -42.2585 -390.657L-47.6623 -403.112C-48.0477 -404 -48.4141 -404.897 -48.7612 -405.8L-53.6112 -418.43C-53.9773 -419.383 -54.3219 -420.345 -54.6447 -421.314L-58.917 -434.136C-59.2547 -435.149 -59.5685 -436.171 -59.858 -437.199L-63.5287 -450.232C-63.8289 -451.298 -64.1031 -452.372 -64.351 -453.451L-67.3961 -466.714C-67.6508 -467.824 -67.8777 -468.939 -68.0764 -470.06L-70.4721 -483.571C-70.6745 -484.713 -70.8477 -485.859 -70.9915 -487.01L-72.7139 -500.787C-72.859 -501.949 -72.9742 -503.113 -73.0593 -504.28L-74.0843 -518.343C-74.1694 -519.51 -74.2244 -520.68 -74.2491 -521.85L-74.5531 -536.216C-74.5776 -537.376 -74.5725 -538.537 -74.5376 -539.697L-74.0965 -554.385C-74.0623 -555.526 -73.9993 -556.665 -73.9077 -557.803L-72.6977 -572.831C-72.6083 -573.941 -72.4917 -575.048 -72.348 -576.153L-70.3451 -591.54C-70.2059 -592.609 -70.0413 -593.675 -69.8514 -594.736L-67.0318 -610.501C-66.8491 -611.522 -66.6431 -612.539 -66.4139 -613.551L-62.7536 -629.711C-62.5343 -630.679 -62.2939 -631.642 -62.0325 -632.6L-57.5076 -649.174"/>
 </g>
 <g stroke-width="8.503937">
  <path stroke="#f00" d="M782.374 622.592L791.768 605.18L799.508 588.182L805.66 571.581L810.292 555.362L813.472 539.507L815.265 524.001L815.74 508.827L814.964 493.969L813.003 479.41L809.924 465.134L805.796 451.125L800.684 437.366L794.657 423.841L787.781 410.533L780.123 397.427L771.751 384.506L762.732 371.754L753.132 359.153L743.019 346.688L732.461 334.343L721.524 322.101L710.275 309.946L698.781 297.861L687.111 285.83L675.33 273.837L663.504 261.866L651.664 249.908L639.808 237.962L627.936 226.027L616.046 214.102L604.135 202.186L592.203 190.278L580.247 178.375L568.265 166.478L556.257 154.585L544.22 142.696L532.153 130.808L520.053 118.92L507.92 107.033L495.751 95.1433L483.545 83.2513L471.3 71.3554L459.014 59.4546L446.686 47.5476L434.314 35.6334L421.896 23.7107L409.431 11.7785L396.917 -0.164441L384.351 -12.1192L371.735 -24.0866L359.078 -36.0656L346.395 -48.0542L333.7 -60.0506L321.008 -72.0529L308.332 -84.0592L295.687 -96.0676L283.087 -108.076L270.548 -120.083L258.083 -132.087L245.706 -144.084L233.432 -156.075L221.275 -168.056L209.25 -180.027L197.371 -191.984L185.652 -203.926L174.108 -215.852L162.752 -227.759L151.6 -239.645L140.666 -251.509L129.964 -263.348L119.509 -275.162L109.314 -286.947L99.3942 -298.702L89.7664 -310.43L80.4535 -322.148L71.4793 -333.874L62.8678 -345.627L54.6427 -357.425L46.8282 -369.286L39.4479 -381.229L32.5259 -393.272L26.086 -405.435L20.1522 -417.734L14.7483 -430.19L9.89828 -442.819L5.62598 -455.641L1.95532 -468.675L-1.08979 -481.938L-3.48546 -495.449L-5.20779 -509.226L-6.23287 -523.289L-6.53681 -537.655L-6.0957 -552.343L-4.88564 -567.371L-2.88273 -582.758L-0.0630804 -598.523L3.59722 -614.683L8.12207 -631.257"/>
 </g>
</svg>
